<svg xmlns="http://www.w3.org/2000/svg" version="1.1" xmlns:xlink="http://www.w3.org/1999/xlink" xmlns:svgjs="http://svgjs.dev/svgjs" viewBox="0 0 28.5214076175575 8.566427836311767"><g transform="matrix(0.7348690456938346,0,0,0.7348690456938346,8.663998846499906,3.102646796248739)"><g transform="matrix(1,0,0,1,0,0)" clip-path="url(#SvgjsClipPath7399)"><g clip-path="url(#SvgjsClipPath73979210e767-3976-428a-96b6-14446ae15b80)"><path d=" M -5.008060778226848 4.344387440911332 C -5.058536874261316 4.344387440911332 -5.099455834943395 4.303468480229254 -5.099455834943395 4.252992384194783 C -5.099455834943395 4.080095785651256 -5.086751922059795 2.5592820418879136 -4.648215591169623 2.1544933356903266 C -4.492204229354477 1.9560289700303448 -4.040438464004586 1.7991036576480335 -3.843527814308783 1.7536574656957304 C -3.8198901005231463 1.7481432772286123 -3.795029461556246 1.7522754920254235 -3.7744465357212653 1.7651398206722853 C -3.7538636098862814 1.7780041493191474 -3.739255271645228 1.7985400452773113 -3.733853746248932 1.8222037582331407 C -3.7283840458947366 1.845838364121299 -3.7325351821686867 1.870677923411347 -3.7453925699528705 1.8912497438660432 C -3.758249957737057 1.9118215643207401 -3.7787586142372764 1.9264376734693704 -3.8024000387863355 1.9318778262929972 C -4.025609616052323 1.983356091988592 -4.405081891539426 2.133838052872387 -4.507352960005246 2.2713419157024326 C -4.51108825567111 2.276336005957496 -4.515330245878456 2.2809302191784475 -4.52001117536049 2.285051174209914 C -4.845354728507219 2.57392809972674 -4.916620023981944 3.8036028903195223 -4.916620023981944 4.253038081723142 C -4.916632140690541 4.277277558784567 -4.9262728574642445 4.300519436293781 -4.943421326015026 4.317650764945963 C -4.960569794565805 4.334782093598145 -4.9838213011684465 4.344399563679794 -5.008060778226848 4.344387440911332 Z" fill="url(#gradient-2abb9126-97e3-4fb9-a8f2-afb666645f09_0)" transform="matrix(1,0,0,1,0,0)" fill-rule="nonzero"></path></g><g clip-path="url(#SvgjsClipPath73979210e767-3976-428a-96b6-14446ae15b80)"><path d=" M -0.8881087140299835 4.344387440911332 C -0.8891597571822221 4.344387440911332 -0.8902108003344607 4.344387440911332 -0.8912618434867028 4.344387440911332 C -0.9417052380480646 4.342675024330767 -0.9812110373628569 4.300397067684461 -0.9795037707465308 4.249953498558957 C -0.979252434340558 4.2425276502007385 -0.9561294849912709 3.4989603175190918 -1.1053090663168548 2.893879344527192 C -1.1173890450247308 2.8448737811494174 -1.0874579212244777 2.795353422189394 -1.038453582328703 2.7832684771359903 C -1.0149137497415603 2.777461289223366 -0.9900310737839781 2.7812455673757306 -0.9692820054070932 2.793788426347054 C -0.9485329370302056 2.806331285318377 -0.9336180106836327 2.8266047481706074 -0.9278198661733228 2.850146809888324 C -0.7724482697551904 3.4803157259489157 -0.7957540092179105 4.224797009197728 -0.7968279011343302 4.256168362415684 C -0.7985381844378008 4.305355718723108 -0.8388916430232447 4.344355644529967 -0.8881087140299799 4.344387440911332 Z" fill="url(#gradient-2abb9126-97e3-4fb9-a8f2-afb666645f09_1)" transform="matrix(1,0,0,1,0,0)" fill-rule="nonzero"></path></g><g clip-path="url(#SvgjsClipPath73979210e767-3976-428a-96b6-14446ae15b80)"><path d=" M -2.965883933423963 3.1413314605872427 L -2.967186312982174 3.1413314605872427 C -2.996787410537602 3.1415961746855934 -3.0245876272299292 3.1271438292046425 -3.041376250271828 3.1027627466528602 L -3.867244831526731 1.893560448764585 C -3.8809054081960137 1.873596844958909 -3.8860559135373487 1.849016023737692 -3.881558631942597 1.8252477404571334 C -3.8770613503478444 1.8014794571765749 -3.8632863616564337 1.7804795961357969 -3.8432764779028172 1.7668869001554506 C -3.82322863530322 1.7532074588339892 -3.798563057819897 1.7480637719820056 -3.7747186476836636 1.7525900522451487 C -3.75087423754743 1.757116332508292 -3.7298093098559866 1.770940841482251 -3.716168802774276 1.7910151951286197 L -2.9635533594776913 2.8936508568854014 L -2.162955511404919 1.7890273526450344 C -2.1414057058941944 1.7593145122699547 -2.104171089112444 1.7453762760701172 -2.0684073252316493 1.7536346169315515 C -1.8395541032134166 1.8064609597137151 -1.420416373111331 1.9840187061497874 -1.2576417770991615 2.153282351188832 C -1.203379384056872 2.2109079908076623 -1.156393884607736 2.2749749408159627 -1.1177387940303043 2.3440466833204465 C -1.1057065635272534 2.3650894971758247 -1.102526544784037 2.3900502938332213 -1.1088983303214226 2.413437789100911 C -1.1152701158588108 2.4368252843686 -1.1306717417035226 2.456723621241781 -1.1517149063646777 2.4687552382101736 C -1.172757720220059 2.4807874687132223 -1.19771851687746 2.4839674874564395 -1.2211060121451482 2.4775957019190527 C -1.244493507412836 2.471223916381667 -1.2643918442860165 2.455822290536953 -1.2764234612544128 2.434779125875797 C -1.307620531919977 2.378775587164307 -1.3455491891885378 2.326797289705836 -1.38936490259188 2.2800015973263252 C -1.5081784763233923 2.1564354806455532 -1.8422731061507296 2.007392991905044 -2.0516134835599815 1.9469351618870485 L -2.8918082399551994 3.1048876817215203 C -2.909161609808928 3.1282905034263764 -2.936754114650171 3.1418654711073706 -2.965883933423963 3.1413314605872427 Z" fill="url(#gradient-2abb9126-97e3-4fb9-a8f2-afb666645f09_2)" transform="matrix(1,0,0,1,0,0)" fill-rule="nonzero"></path></g><g clip-path="url(#SvgjsClipPath73979210e767-3976-428a-96b6-14446ae15b80)"><path d=" M -3.9271314424402455 0.30091019042203593 C -3.9744431932174846 0.30085822265324613 -4.013894287889364 0.26470793565115125 -4.018069523873211 0.2175807474607241 C -4.021359745915006 0.18045150566962698 -4.022959159407545 0.14115163128151154 -4.022959159407545 0.09739624787846468 C -4.022959159407545 -0.13632376090992526 -3.97737587487017 -0.32023346378779705 -3.8835816979148134 -0.46482044351337437 C -3.870394045384132 -0.48516236340353447 -3.8496648114459355 -0.4994314391418486 -3.8259553106207003 -0.504487866211029 C -3.8022458097954646 -0.5095442932802096 -3.7774987309749157 -0.5049737624642391 -3.7571594857116515 -0.4917819852447558 C -3.736821311600371 -0.47859070178404306 -3.7225569371471363 -0.4578598071870936 -3.717504852279639 -0.4341505743017102 C -3.712452767412138 -0.41044134141632693 -3.7170268844980052 -0.38569624448346607 -3.730220792744446 -0.3653597730415922 C -3.8041593936281344 -0.2513215910235206 -3.8401233484460944 -0.09994852833673962 -3.8401233484460944 0.09739624787846468 C -3.8401233484460944 0.13573647417105628 -3.8387524225953458 0.16975828403379079 -3.8359648733654894 0.20147236871443264 C -3.8338283847361048 0.22561799857961184 -3.841371412250976 0.24962337892197328 -3.8569345136114994 0.26820740166442336 C -3.872497614972019 0.2867914244068732 -3.894805888712653 0.2984317196000654 -3.918951584864117 0.3005674589593488 C -3.921807680386508 0.30079594660114006 -3.9244581370312863 0.30091019042203593 -3.9271314424402455 0.30091019042203593 Z" fill="url(#gradient-2abb9126-97e3-4fb9-a8f2-afb666645f09_3)" transform="matrix(1,0,0,1,0,0)" fill-rule="nonzero"></path></g><g clip-path="url(#SvgjsClipPath73979210e767-3976-428a-96b6-14446ae15b80)"><path d=" M -2.983568876898616 1.6448973482030391 C -3.289285341615465 1.6448973482030391 -3.6018564355860567 1.3719460113190713 -3.819696553269944 0.9147879376229029 C -3.83013370871699 0.8929034765282311 -3.8314472911558877 0.867768598510579 -3.82334818541272 0.8449154075432117 C -3.8152490796695466 0.822062216575844 -3.7984010847698295 0.8033637498032651 -3.7765123889713754 0.7929354782555667 C -3.754627526585355 0.7825070810119423 -3.7294960632218173 0.7812007186573915 -3.706647911073544 0.789303842384395 C -3.6837997589252707 0.7974069661113985 -3.665107000200652 0.8142556397879126 -3.654682778368216 0.8361424913183146 C -3.467962677496307 1.2279987969905095 -3.206847000457132 1.4697158732415976 -2.973264084253819 1.4619472934206907 L -2.9704079887314276 1.4619472934206907 C -2.9210007589445883 1.461924307696704 -2.880519847339633 1.5011705514977094 -2.8790129320148807 1.550554800907383 C -2.877475186387882 1.601004986198347 -2.9171246636774155 1.6431504574142624 -2.967574741973215 1.6446917093254267 C -2.972936585300589 1.6448288019105015 -2.978267963609056 1.6448973482030391 -2.983568876898616 1.6448973482030391 Z" fill="url(#gradient-2abb9126-97e3-4fb9-a8f2-afb666645f09_4)" transform="matrix(1,0,0,1,0,0)" fill-rule="nonzero"></path></g><g clip-path="url(#SvgjsClipPath73979210e767-3976-428a-96b6-14446ae15b80)"><path d=" M -3.746397717783279 0.9472560315214569 C -3.840511777437139 0.9472560315214569 -3.9341231642790637 0.8991136853960153 -4.0099582125896225 0.8116943136466379 C -4.103638145724079 0.7036196590793209 -4.152991476351018 0.5546000191029912 -4.135489322989796 0.4320392480461017 C -4.12484179888232 0.3574151842370412 -4.079738338392703 0.26126758457123356 -4.014390872840372 0.21371930631445002 C -4.019971347322821 0.1668091728842469 -4.02285503274097 0.11961743215227183 -4.023027705700086 0.07237685110230974 C -4.023624346060118 0.021908170951202566 -3.9831980045004625 -0.019489957665180135 -3.932729389664143 -0.02009209753065644 C -3.882437784259791 -0.020227559042177656 -3.8413067064987825 0.01994816381160569 -3.8402604410311696 0.07022906726947098 C -3.8409330995261177 0.13295977087712618 -3.8344245549392837 0.19556139054269872 -3.820861840243083 0.2568120755562877 C -3.8120118134761043 0.29176772460927736 -3.824541781846965 0.32865953148404436 -3.852850110093879 0.35099468150270363 C -3.8707348168028366 0.3651666528811197 -3.8932929012584645 0.3720988191093495 -3.9160497918133723 0.3704161310549696 C -3.9357692469671743 0.3960235384737669 -3.9490158835758367 0.42601266963634354 -3.9546642032761135 0.45783550280434726 C -3.9646719619865793 0.5280269063626555 -3.9306730008880217 0.6242659010851794 -3.871997374475999 0.6919210918196035 C -3.831989188398331 0.7380298979331013 -3.7862459625116998 0.7644659180883624 -3.746511961604182 0.7644659180883624 C -3.696035865569711 0.7644659180883624 -3.6551169048876346 0.8053848787704403 -3.6551169048876346 0.8558609748049095 C -3.6551168654935973 0.9062924895006685 -3.695966242507426 0.9471929921337225 -3.74639771779343 0.9472560315214689 Z" fill="url(#gradient-2abb9126-97e3-4fb9-a8f2-afb666645f09_5)" transform="matrix(1,0,0,1,0,0)" fill-rule="nonzero"></path></g><g clip-path="url(#SvgjsClipPath73979210e767-3976-428a-96b6-14446ae15b80)"><path d=" M -1.9735392563598726 0.30091019042203593 C -1.9762354105330133 0.30091019042203593 -1.9789544134703294 0.30079594660114006 -1.9816962651718266 0.3005674589593488 C -2.005841961323293 0.29843171960006476 -2.028150235063924 0.28679142440687233 -2.0437133364244437 0.2682074016644225 C -2.059276437784961 0.2496233789219724 -2.0668194652998384 0.22561799857961162 -2.0646829766704475 0.20147236871443264 C -2.0618954274405943 0.16975828403379079 -2.0605245015898457 0.13573647417105628 -2.0605245015898457 0.09739624787846468 C -2.0605245015898457 -0.09994852833673962 -2.0964656076436277 -0.2513215910235206 -2.1704270572914908 -0.3653597730415922 C -2.1836188345109746 -0.38569901830485553 -2.1881893653269455 -0.410446097125408 -2.1831329382577658 -0.4341555979506414 C -2.1780765111885865 -0.4578650987758748 -2.163807435450269 -0.4785943327140748 -2.1434655155601074 -0.4917819852447558 C -2.101115361985941 -0.519237140341813 -2.044527363009428 -0.5071666705673585 -2.0170661521211266 -0.46482044351337437 C -1.9233862189866642 -0.32023346378779705 -1.8776886906283918 -0.13632376090992526 -1.8776886906283918 0.09739624787846468 C -1.8776886906283918 0.14115163128151154 -1.8792881041209313 0.18045150566962675 -1.8825554773985478 0.2175807474607241 C -1.886732279222517 0.2647253813658841 -1.9262099696816102 0.30088186984009657 -1.9735392563598726 0.30091019042203593 Z" fill="url(#gradient-2abb9126-97e3-4fb9-a8f2-afb666645f09_6)" transform="matrix(1,0,0,1,0,0)" fill-rule="nonzero"></path></g><g clip-path="url(#SvgjsClipPath73979210e767-3976-428a-96b6-14446ae15b80)"><path d=" M -2.9171018219015057 1.6448973482030391 C -2.9389469911995816 1.6448794559930295 -2.960770482826086 1.6435212107099813 -2.9824492874538393 1.6408302681791525 C -3.0325392420392934 1.6346257940374347 -3.0681170752767257 1.5889924662420931 -3.0619172892688717 1.5389019311760235 C -3.0589839695342933 1.5148254630487004 -3.0465844622605913 1.4929079402788847 -3.0274585286525366 1.4779921987360862 C -3.0083325950444815 1.4630764571932877 -2.984054603375655 1.4563902994383202 -2.959988952265746 1.4594110805968064 C -2.945763151460504 1.4612000560056484 -2.931439666805035 1.462100520144884 -2.9171018219015057 1.4621072347699449 C -2.6871290104384937 1.4621072347699449 -2.4299661696023107 1.222195210889009 -2.2459879204319027 0.8360510962615977 C -2.224280594284653 0.7904866905568908 -2.1697486557726866 0.7711432473518394 -2.1241811585929273 0.7928440831988501 C -2.1022884207942996 0.8032682195202643 -2.0854353668766885 0.8219649262842152 -2.0773318290821248 0.8448185312860257 C -2.0692282912875575 0.8676721362878359 -2.0705385374773098 0.892809270672831 -2.080974145530174 0.9146965425661864 C -2.298837111978246 1.3719460113190713 -2.611408205948835 1.6448973482030391 -2.9171018219015057 1.6448973482030391 Z" fill="url(#gradient-2abb9126-97e3-4fb9-a8f2-afb666645f09_7)" transform="matrix(1,0,0,1,0,0)" fill-rule="nonzero"></path></g><g clip-path="url(#SvgjsClipPath73979210e767-3976-428a-96b6-14446ae15b80)"><path d=" M -2.154272981016849 0.9472560315214569 C -2.2047490770513165 0.9472560315214569 -2.2456680377333957 0.906337070839379 -2.2456680377333957 0.8558609748049095 C -2.2456680377333957 0.8053848787704403 -2.2047490770513165 0.7644659180883624 -2.154272981016849 0.7644659180883624 C -2.114538980109328 0.7644659180883624 -2.0687957542226965 0.738029897933101 -2.0287875681450283 0.6919210918196035 C -1.970111941733006 0.6242659010851794 -1.9361358293986295 0.5280269063626553 -1.9461435881090918 0.4578126540401679 C -1.9517858563801198 0.42599492132337424 -1.9650332924803036 0.3960118189072803 -1.9847579995718334 0.3704161310549705 C -2.007515909134973 0.37210787363909636 -2.0300772162130865 0.3651747170894226 -2.04795768129133 0.35099468150270363 C -2.0762660095382377 0.32865953148404325 -2.088795977909095 0.29176772460927647 -2.0799459511421134 0.2568120755563017 C -2.0663650510361076 0.19556398182009915 -2.0598487132666454 0.13296114155488215 -2.060524501589852 0.07022906726947076 C -2.0598597210544924 0.01979269110357884 -2.0185166003048813 -0.020600130528454885 -1.9680784017210629 -0.02009209753065644 C -1.9438383929903598 -0.01980895097584634 -1.920703865997893 -0.009907233889935751 -1.9037650033733926 0.007434424860724098 C -1.886826140748889 0.024776083611383948 -1.8774707437326215 0.04813688169454999 -1.8777572369209357 0.07237685110230974 C -1.8779299098800544 0.11961743215234888 -1.8808135952982097 0.1668091728843244 -1.8863940697806587 0.21371930631452996 C -1.8209780579357813 0.26126758457123356 -1.7758517486819883 0.357415184237041 -1.765295619631225 0.4320163992819226 C -1.7478163150341879 0.5546000191029912 -1.7971010993685863 0.7036196590793209 -1.8908267300314048 0.8116943136466379 C -1.966570383285239 0.8991136853960153 -2.0601589213629827 0.9472560315214569 -2.154272981016849 0.9472560315214569 Z" fill="url(#gradient-2abb9126-97e3-4fb9-a8f2-afb666645f09_8)" transform="matrix(1,0,0,1,0,0)" fill-rule="nonzero"></path></g><g clip-path="url(#SvgjsClipPath73979210e767-3976-428a-96b6-14446ae15b80)"><path d=" M -1.5641807973264612 3.2098777531246525 L -2.0440048450883315 3.2098777531246525 C -2.0944809411228023 3.2098777531246525 -2.135399901804879 3.168958792442576 -2.135399901804879 3.118482696408106 C -2.135399901804879 3.068006600373637 -2.0944809411228023 3.0270876396915587 -2.0440048450883315 3.0270876396915587 L -1.5641807973264612 3.0270876396915587 C -1.5137047012919904 3.0270876396915587 -1.4727857406099143 3.068006600373636 -1.4727857406099143 3.118482696408106 C -1.4727857406099143 3.168958792442576 -1.5137047012919904 3.2098777531246525 -1.5641807973264612 3.2098777531246525 Z" fill="url(#gradient-2abb9126-97e3-4fb9-a8f2-afb666645f09_9)" transform="matrix(1,0,0,1,0,0)" fill-rule="nonzero"></path></g><g clip-path="url(#SvgjsClipPath73979210e767-3976-428a-96b6-14446ae15b80)"><path d=" M -2.112551137625744 -0.3545294588206813 L -3.8262084510609995 -0.3545294588206813 C -3.8766845470954703 -0.3545294588206813 -3.9176035077775464 -0.395448419502759 -3.9176035077775464 -0.44592451553722834 L -3.9176035077775464 -1.0399923841947842 C -3.9176035077775464 -1.0904684802292535 -3.8766845470954703 -1.1313874409113311 -3.8262084510609995 -1.1313874409113311 L -2.112551137625744 -1.1313874409113311 C -2.062075041591273 -1.1313874409113311 -2.021156080909197 -1.0904684802292535 -2.021156080909197 -1.0399923841947842 L -2.021156080909197 -0.44592451553722845 C -2.021156080909197 -0.42168503940617963 -2.0307851753098713 -0.39843834911070275 -2.0479250732545435 -0.3812984511660288 C -2.065064971199219 -0.3641585532213548 -2.088311661494695 -0.3545294588206813 -2.112551137625744 -0.3545294588206813 Z M -3.734813394344452 -0.5373195722537754 L -2.2039461943422913 -0.5373195722537754 L -2.2039461943422913 -0.9485973274782371 L -3.734813394344452 -0.9485973274782371 Z" fill="url(#gradient-2abb9126-97e3-4fb9-a8f2-afb666645f09_10)" transform="matrix(1,0,0,1,0,0)" fill-rule="nonzero"></path></g></g><g><path d=" M 0.2745 3.212999999999999 L 0.2745 0.017999999999998906 L 1.5030000000000001 0.017999999999998906 Q 2.0340000000000003 0.017999999999998906 2.3917500000000005 0.231749999999999 Q 2.7495000000000003 0.4454999999999987 2.9317500000000005 0.8077499999999991 Q 3.1140000000000003 1.169999999999999 3.1140000000000003 1.610999999999999 Q 3.1140000000000003 2.096999999999999 2.9137500000000003 2.456999999999999 Q 2.7135000000000002 2.8169999999999993 2.3512500000000003 3.0149999999999992 Q 1.9890000000000003 3.212999999999999 1.5030000000000001 3.212999999999999 L 0.2745 3.212999999999999 M 2.2230000000000003 1.610999999999999 Q 2.2230000000000003 1.363499999999999 2.1375 1.1767499999999989 Q 2.052 0.9899999999999989 1.8900000000000001 0.886499999999999 Q 1.7280000000000002 0.782999999999999 1.5030000000000001 0.782999999999999 L 1.1520000000000001 0.782999999999999 L 1.1520000000000001 2.447999999999999 L 1.5030000000000001 2.447999999999999 Q 1.7325000000000002 2.447999999999999 1.8922500000000002 2.339999999999999 Q 2.052 2.2319999999999993 2.1375 2.040749999999999 Q 2.2230000000000003 1.849499999999999 2.2230000000000003 1.610999999999999 M 4.936515380859375 3.2399999999999993 Q 4.572015380859375 3.2399999999999993 4.275015380859375 3.102749999999999 Q 3.9780153808593752 2.965499999999999 3.764265380859375 2.7337499999999992 Q 3.550515380859375 2.501999999999999 3.435765380859375 2.211749999999999 Q 3.321015380859375 1.921499999999999 3.321015380859375 1.610999999999999 Q 3.321015380859375 1.291499999999999 3.442515380859375 1.003499999999999 Q 3.564015380859375 0.7154999999999987 3.782265380859375 0.48824999999999896 Q 4.000515380859375 0.2609999999999988 4.299765380859375 0.13049999999999873 Q 4.599015380859376 -1.3322676295501878e-15 4.954515380859375 -1.3322676295501878e-15 Q 5.319015380859375 -1.3322676295501878e-15 5.616015380859375 0.13724999999999898 Q 5.913015380859376 0.27449999999999886 6.124515380859375 0.5084999999999988 Q 6.336015380859376 0.7424999999999988 6.450765380859375 1.0327499999999987 Q 6.565515380859376 1.322999999999999 6.565515380859376 1.6289999999999991 Q 6.565515380859376 1.943999999999999 6.4462653808593755 2.2319999999999993 Q 6.327015380859375 2.519999999999999 6.108765380859375 2.7472499999999993 Q 5.890515380859375 2.974499999999999 5.593515380859375 3.107249999999999 Q 5.2965153808593755 3.2399999999999993 4.936515380859375 3.2399999999999993 M 4.212015380859375 1.619999999999999 Q 4.212015380859375 1.781999999999999 4.257015380859375 1.932749999999999 Q 4.302015380859375 2.083499999999999 4.392015380859375 2.202749999999999 Q 4.482015380859375 2.321999999999999 4.619265380859375 2.391749999999999 Q 4.756515380859375 2.461499999999999 4.9455153808593755 2.461499999999999 Q 5.1345153808593755 2.461499999999999 5.274015380859375 2.389499999999999 Q 5.4135153808593754 2.317499999999999 5.501265380859375 2.1937499999999988 Q 5.589015380859376 2.069999999999999 5.631765380859376 1.919249999999999 Q 5.674515380859376 1.768499999999999 5.674515380859376 1.610999999999999 Q 5.674515380859376 1.448999999999999 5.629515380859376 1.3004999999999989 Q 5.584515380859376 1.1519999999999988 5.494515380859376 1.0327499999999987 Q 5.404515380859375 0.9134999999999991 5.265015380859375 0.8459999999999988 Q 5.125515380859375 0.7784999999999989 4.941015380859375 0.7784999999999989 Q 4.752015380859375 0.7784999999999989 4.614765380859375 0.8504999999999989 Q 4.477515380859375 0.922499999999999 4.387515380859375 1.041749999999999 Q 4.297515380859375 1.1609999999999991 4.254765380859375 1.3117499999999989 Q 4.212015380859375 1.462499999999999 4.212015380859375 1.619999999999999 M 6.763581298828125 1.588499999999999 Q 6.763581298828125 1.295999999999999 6.873831298828125 1.014749999999999 Q 6.984081298828125 0.7334999999999989 7.195581298828125 0.5039999999999987 Q 7.407081298828125 0.27449999999999886 7.710831298828126 0.13724999999999898 Q 8.014581298828125 -1.3322676295501878e-15 8.397081298828125 -1.3322676295501878e-15 Q 8.856081298828126 -1.3322676295501878e-15 9.198081298828125 0.1912499999999988 Q 9.540081298828126 0.38249999999999895 9.706581298828125 0.6974999999999989 L 9.036081298828126 1.1744999999999988 Q 8.977581298828126 1.016999999999999 8.867331298828125 0.9314999999999989 Q 8.757081298828126 0.8459999999999988 8.628831298828125 0.8122499999999988 Q 8.500581298828125 0.7784999999999989 8.379081298828126 0.7784999999999989 Q 8.190081298828126 0.7784999999999989 8.052831298828124 0.852749999999999 Q 7.915581298828125 0.9269999999999987 7.827831298828125 1.0484999999999989 Q 7.740081298828125 1.169999999999999 7.697331298828125 1.318499999999999 Q 7.654581298828125 1.466999999999999 7.654581298828125 1.615499999999999 Q 7.654581298828125 1.781999999999999 7.704081298828125 1.934999999999999 Q 7.753581298828125 2.087999999999999 7.848081298828125 2.2072499999999993 Q 7.9425812988281255 2.3264999999999993 8.079831298828125 2.3939999999999992 Q 8.217081298828125 2.461499999999999 8.388081298828125 2.461499999999999 Q 8.509581298828126 2.461499999999999 8.635581298828125 2.423249999999999 Q 8.761581298828126 2.384999999999999 8.865081298828125 2.299499999999999 Q 8.968581298828125 2.213999999999999 9.022581298828126 2.069999999999999 L 9.738081298828126 2.497499999999999 Q 9.643581298828126 2.731499999999999 9.423081298828125 2.8979999999999992 Q 9.202581298828125 3.0644999999999993 8.923581298828125 3.152249999999999 Q 8.644581298828125 3.2399999999999993 8.370081298828126 3.2399999999999993 Q 8.014581298828125 3.2399999999999993 7.719831298828125 3.0982499999999993 Q 7.425081298828125 2.9564999999999992 7.211331298828125 2.720249999999999 Q 6.997581298828125 2.483999999999999 6.880581298828125 2.189249999999999 Q 6.763581298828125 1.894499999999999 6.763581298828125 1.588499999999999 M 10.04848681640625 3.212999999999999 L 10.04848681640625 0.017999999999998906 L 10.925986816406251 0.017999999999998906 L 10.925986816406251 2.447999999999999 L 12.37498681640625 2.447999999999999 L 12.37498681640625 3.212999999999999 L 10.04848681640625 3.212999999999999 M 12.681085693359375 3.212999999999999 L 12.681085693359375 0.017999999999998906 L 13.558585693359376 0.017999999999998906 L 13.558585693359376 3.212999999999999 L 12.681085693359375 3.212999999999999 M 14.985160400390626 1.642499999999999 L 14.985160400390626 3.212999999999999 L 14.107660400390625 3.212999999999999 L 14.107660400390625 0.017999999999998906 L 14.791660400390626 0.017999999999998906 L 16.074160400390625 1.642499999999999 L 16.074160400390625 0.017999999999998906 L 16.951660400390626 0.017999999999998906 L 16.951660400390626 3.212999999999999 L 16.254160400390624 3.212999999999999 L 14.985160400390626 1.642499999999999 M 17.500787841796875 3.212999999999999 L 17.500787841796875 0.017999999999998906 L 18.378287841796876 0.017999999999998906 L 18.378287841796876 1.232999999999999 L 19.350287841796874 0.017999999999998906 L 20.340287841796876 0.017999999999998906 L 19.179287841796874 1.448999999999999 L 20.421287841796875 3.212999999999999 L 19.413287841796876 3.212999999999999 L 18.621287841796875 2.038499999999999 L 18.378287841796876 2.290499999999999 L 18.378287841796876 3.212999999999999 L 17.500787841796875 3.212999999999999" fill="url(#gradient-39410e48-7ed5-47c1-9a96-73df264f93da)" fill-rule="nonzero"></path></g><g></g></g><defs><clipPath id="SvgjsClipPath7399"><path d=" M -5.099455834943395 -1.1313874409113311 h 4.304455834943395 v 5.4757748818226615 h -4.304455834943395 Z"></path></clipPath><clipPath id="SvgjsClipPath73979210e767-3976-428a-96b6-14446ae15b80"><path d=" M -5.099455834943395 -1.1313874409113311 L -0.7949999999999999 -1.1313874409113311 L -0.7949999999999999 4.34438744091133 L -5.099455834943396 4.34438744091133 Z"></path></clipPath><linearGradient id="gradient-2abb9126-97e3-4fb9-a8f2-afb666645f09_0" x1="0" x2="1" y1="0" y2="1"><stop stop-color="#7b6658" offset="0"></stop><stop stop-color="#695f58" offset="1"></stop></linearGradient><linearGradient id="gradient-2abb9126-97e3-4fb9-a8f2-afb666645f09_1" x1="0" x2="1" y1="0" y2="1"><stop stop-color="#615c58" offset="0"></stop><stop stop-color="#595959" offset="1"></stop></linearGradient><linearGradient id="gradient-2abb9126-97e3-4fb9-a8f2-afb666645f09_2" x1="0" x2="1" y1="0" y2="1"><stop stop-color="#746358" offset="0"></stop><stop stop-color="#605b58" offset="1"></stop></linearGradient><linearGradient id="gradient-2abb9126-97e3-4fb9-a8f2-afb666645f09_3" x1="0" x2="1" y1="0" y2="1"><stop stop-color="#7e6757" offset="0"></stop><stop stop-color="#796557" offset="1"></stop></linearGradient><linearGradient id="gradient-2abb9126-97e3-4fb9-a8f2-afb666645f09_4" x1="0" x2="1" y1="0" y2="1"><stop stop-color="#786457" offset="0"></stop><stop stop-color="#6f6158" offset="1"></stop></linearGradient><linearGradient id="gradient-2abb9126-97e3-4fb9-a8f2-afb666645f09_5" x1="0" x2="1" y1="0" y2="1"><stop stop-color="#7d6657" offset="0"></stop><stop stop-color="#766457" offset="1"></stop></linearGradient><linearGradient id="gradient-2abb9126-97e3-4fb9-a8f2-afb666645f09_6" x1="0" x2="1" y1="0" y2="1"><stop stop-color="#746358" offset="0"></stop><stop stop-color="#6f6158" offset="1"></stop></linearGradient><linearGradient id="gradient-2abb9126-97e3-4fb9-a8f2-afb666645f09_7" x1="0" x2="1" y1="0" y2="1"><stop stop-color="#746357" offset="0"></stop><stop stop-color="#6b6058" offset="1"></stop></linearGradient><linearGradient id="gradient-2abb9126-97e3-4fb9-a8f2-afb666645f09_8" x1="0" x2="1" y1="0" y2="1"><stop stop-color="#736258" offset="0"></stop><stop stop-color="#6c6058" offset="1"></stop></linearGradient><linearGradient id="gradient-2abb9126-97e3-4fb9-a8f2-afb666645f09_9" x1="0" x2="1" y1="0" y2="1"><stop stop-color="#665e58" offset="0"></stop><stop stop-color="#615c58" offset="1"></stop></linearGradient><linearGradient id="gradient-2abb9126-97e3-4fb9-a8f2-afb666645f09_10" x1="0" x2="1" y1="0" y2="1"><stop stop-color="#816857" offset="0"></stop><stop stop-color="#736258" offset="1"></stop></linearGradient><linearGradient id="gradient-39410e48-7ed5-47c1-9a96-73df264f93da" y1="0" x1="0" y2="1" x2="1"><stop stop-color="#bab9b4" offset="0"></stop><stop stop-color="#404040" offset="1"></stop></linearGradient></defs></svg>