<svg xmlns="http://www.w3.org/2000/svg" version="1.1" xmlns:xlink="http://www.w3.org/1999/xlink" xmlns:svgjs="http://svgjs.dev/svgjs" viewBox="0 0 8.559151604366663 2.7536583461582893"><g transform="matrix(0.7449583180562226,0,0,0.7449583180562226,2.8915156510826745,0.9516442130485556)"><rect width="9.501885766910409" height="9.501885766910409" x="-2.887670647335413" y="-4.180192883455204" fill="#eed9cb"></rect><g transform="matrix(1,0,0,1,0,0)" clip-path="url(#SvgjsClipPath6019)"><g clip-path="url(#SvgjsClipPath6014845d7904-acb1-44b9-a09e-fa44865dc077)"><path d=" M -0.5244377852591853 0.255965412121847 L -0.857745706526988 -0.023018318460275355 C -0.8646525456147696 -0.02879974077917774 -0.8689797153969863 -0.037088197661325484 -0.8697752127758869 -0.04606017927823608 C -0.8705707101547875 -0.055032160895146676 -0.8677693664102222 -0.06395266475065503 -0.8619874938333447 -0.07085912692160523 L -0.7050758495737992 -0.2583254342171847 C -0.6992997118702358 -0.2652362667786782 -0.691013678980444 -0.26956801455073287 -0.6820423211778897 -0.27036683408109663 C -0.6730709633753371 -0.2711656536114616 -0.664149946290713 -0.2683660404261706 -0.657243662631384 -0.2625844645613725 L -0.3239271198446658 0.016399266020749148 C -0.31702011267123575 0.022176405512970065 -0.3126917020898974 0.030461308153819477 -0.3118945472463046 0.03943051285444582 C -0.31109739240271206 0.048399717555072164 -0.31389682699957633 0.05731812076791609 -0.31967671101939343 0.06422283144424912 L -0.47658835527893895 0.2517150032965749 C -0.4886281424526686 0.26610149795691207 -0.5100506503782465 0.268004434246517 -0.5244377852591853 0.255965412121847 Z M -0.7881183197665433 -0.053297092891018305 L -0.5068757512285977 0.1820703734982997 L -0.39353726356728 0.04666079741366164 L -0.6747712105863111 -0.18870666897565638 Z" fill="#525252" transform="matrix(1,0,0,1,0,0)" fill-rule="nonzero"></path></g><g clip-path="url(#SvgjsClipPath6014845d7904-acb1-44b9-a09e-fa44865dc077)"><path d=" M -0.4048228318274858 0.02839179883201448 C -0.4117271343847002 0.022607927465396027 -0.4160510171686629 0.014318222118637758 -0.41684327313226555 0.005346327543060636 C -0.41763552909586843 -0.003625567032517152 -0.4148312605897533 -0.01254471806897367 -0.40904737609601205 -0.019449009629316005 L -0.34767940445648193 -0.09273192040987277 C -0.34078218932419424 -0.10094822793620994 -0.3417564209616297 -0.12249340370569375 -0.34925714241799244 -0.12876124795716032 L -0.5102553866434176 -0.2635242101231462 C -0.5170232789919751 -0.2691885480505375 -0.5382149724859293 -0.267188355662174 -0.5456036141963925 -0.2583512987739305 L -0.5895733606647269 -0.2058548700983057 C -0.6016149757392353 -0.19147663907323698 -0.6230306124065537 -0.18957782969491258 -0.6374141691260573 -0.20161308279194837 C -0.6443204579089614 -0.20739297634308543 -0.6486474260654187 -0.21567996827996622 -0.6494429417588607 -0.22465053955479738 C -0.6502384574523037 -0.23362111082962855 -0.6474373372905957 -0.24254022595550273 -0.6416559564324136 -0.2494452697343636 L -0.5976862099640796 -0.30195031992890364 C -0.5665021760472242 -0.33920390316217286 -0.5028495018951238 -0.3458338512080836 -0.4666908515641055 -0.315580941334087 L -0.30569260733868053 -0.18081797916810055 C -0.26933566207260906 -0.15039263891579682 -0.2644300178097696 -0.08638648248816702 -0.29562267324554004 -0.04911565621706726 L -0.3569906448850706 0.02416725456348945 C -0.3690389898775095 0.03852999752082309 -0.39044359544164786 0.04042045475341616 -0.4048228318274858 0.02839179883201448 Z" fill="#525252" transform="matrix(1,0,0,1,0,0)" fill-rule="nonzero"></path></g><g clip-path="url(#SvgjsClipPath6014845d7904-acb1-44b9-a09e-fa44865dc077)"><path d=" M -1.0031993521480196 0.5996105345691665 C -1.0075891068775293 0.5959380487725703 -1.0109764889006057 0.5912129178069286 -1.0130451267493608 0.5858764549369981 L -1.0217959684484517 0.5631242665193644 C -1.0657657149167847 0.44852703709640407 -1.1072438424185802 0.3402666240762331 -1.229074526211527 0.3207647482896897 C -1.23796919450093 0.31934588837060485 -1.245934539436449 0.31444817402930403 -1.251214854794095 0.3071511501721216 C -1.2564951701517415 0.29985412631493913 -1.2586569811361676 0.29075682457330176 -1.2572237854701753 0.2818644549435866 C -1.2558046050291072 0.2729704848123351 -1.2509088275191895 0.26500517673186685 -1.2436144135604108 0.2597223457845531 C -1.2363199996016307 0.2544395148372399 -1.2272250526668724 0.25227232529838617 -1.2183321136429899 0.25369795264710726 C -1.0578684035903168 0.27937283597704876 -1.0027079255698452 0.4232401221176544 -0.9583933183448976 0.5388029616591348 L -0.9497717994295375 0.5612792614714776 C -0.9429859129668849 0.5787706103085192 -0.9516573126621387 0.5984520248371317 -0.9691443524323496 0.605249007939812 C -0.9806750661924689 0.6097185411656233 -0.9937245078719907 0.6075579500622286 -1.0031993521480207 0.5996105345691659 Z" fill="#525252" transform="matrix(1,0,0,1,0,0)" fill-rule="nonzero"></path></g><g clip-path="url(#SvgjsClipPath6014845d7904-acb1-44b9-a09e-fa44865dc077)"><path d=" M -1.2704578170052527 1.2611310594257943 L -1.7222943803214206 0.8829567537224597 C -1.7292052333662513 0.8771779414193274 -1.7335353865628635 0.8688889042869691 -1.7343310079262262 0.8599155243168443 C -1.7351266292895886 0.8509421443467194 -1.7323224507652046 0.8420205443729974 -1.7265361676277773 0.8351159452611293 L -1.2514042602023085 0.2674234107603598 C -1.239363757850959 0.2530525724067155 -1.2179540091999654 0.25116132004706426 -1.2035806947788086 0.26319886649183355 C -1.1966731374057353 0.2689775350479363 -1.1923445253909097 0.2772639026886362 -1.1915473889146355 0.28623451763867036 C -1.190750252438361 0.2952051325887045 -1.1935499104885274 0.3041249243718055 -1.1993302859535349 0.31103105343424875 L -1.65265837204206 0.8526607362538864 L -1.2527837032287656 1.187356722067062 C -1.1878378012393616 1.1105648530879542 -0.994439888930014 0.8814997170257636 -0.8976633391051028 0.76369528256629 C -0.9204885046410334 0.7492012133146214 -0.9399274563025066 0.7299651489114515 -0.9546602006545447 0.707293305822008 C -0.9650859226088311 0.6916979264697597 -0.9609161075995499 0.6706058372276252 -0.9453403387070426 0.6601508403928213 C -0.9297398571203903 0.6497603392571206 -0.9086751187674658 0.6539339784148628 -0.8982151163156857 0.6694879453781563 C -0.8836648510462268 0.6932462605274293 -0.8607029105090476 0.7106554744253227 -0.8338985852071017 0.7182512563634306 C -0.8229967825181372 0.7214322764586633 -0.8143987667382782 0.7298395126480709 -0.8109739664111626 0.7406672055433653 C -0.8075754020093537 0.7515068097122469 -0.8098172932879262 0.7633276909992636 -0.8169486790195053 0.7721702356600894 C -0.9135096908715337 0.8917334599782966 -1.2196684490748688 1.2533630708830557 -1.2227549528465678 1.2570099733842524 C -1.23481804063582 1.2712661285085622 -1.2561285054568927 1.273107155471235 -1.2704578170052527 1.2611310594257943 Z" fill="#525252" transform="matrix(1,0,0,1,0,0)" fill-rule="nonzero"></path></g><g clip-path="url(#SvgjsClipPath6014845d7904-acb1-44b9-a09e-fa44865dc077)"><path d=" M -1.2557236411789034 1.4682975374429708 L -1.9327715216020942 0.9016223421742134 C -1.9396772602047097 0.8958439775374941 -1.9440040268681926 0.8875584505296755 -1.9447995608892392 0.878589289524102 C -1.9455950949102847 0.8696201285185287 -1.9427941982138501 0.8607024020563959 -1.937013308908451 0.8537987767507128 L -1.4112385993741594 0.2256090440208648 C -1.3984184007470195 0.20705553531501142 -1.2919857497369043 0.06007588084596033 -1.1109769601089297 0.03404751524048932 C -0.9861287446956071 0.016131998934372282 -0.8602459470124411 0.06343827322295026 -0.73292335567041 0.17002611157354153 L -0.7305007088551942 0.17203492548082022 C -0.40202083817999235 0.44699240672946927 -0.6255682021363516 0.7676956673430163 -0.6279046337624146 0.770928736936276 C -0.6283960603405909 0.771618458449505 -0.6269390236438952 0.7699200192231791 -0.6274821793355623 0.7705666331418312 L -1.2079173187932337 1.4640471286176977 C -1.2199464464264138 1.4784193372054553 -1.2413476057202613 1.480322091313997 -1.2557236411789034 1.4682975374429708 Z M -1.8631355133227347 0.8713435677434705 L -1.2381788501861457 1.394419741857254 L -0.680487277627194 0.7280711664080247 C -0.6664945524275645 0.7078364615136757 -0.49994405002064735 0.4535792471808049 -0.7743066464641368 0.22395371238911677 L -0.7765137553064685 0.22209146430339888 C -0.8882227758927834 0.12860833470415484 -0.9959658977780323 0.08634564898106178 -1.1007432171563973 0.10118328303439567 C -1.259491244944915 0.12365958284673845 -1.3559401770510424 0.2647938474911753 -1.3569230302073925 0.2662163981122099 C -1.357266368671621 0.2668240997585255 -1.3576615532535512 0.2674010115569626 -1.3581041782987966 0.2679407018952812 Z" fill="#525252" transform="matrix(1,0,0,1,0,0)" fill-rule="nonzero"></path></g><g clip-path="url(#SvgjsClipPath6014845d7904-acb1-44b9-a09e-fa44865dc077)"><path d=" M -0.8901798606865705 0.10042458936984378 C -0.8970881561120563 0.094646000562427 -0.9014166156795556 0.08635871859403149 -0.9022121933612324 0.07738744831366334 C -0.9030077710429085 0.0684161780332952 -0.9002052337837381 0.05949651494761088 -0.8944216479929272 0.052592402427428575 L -0.8246821814865828 -0.030734577889522274 C -0.81890351293048 -0.03764213526259508 -0.8106171452897806 -0.04197074727742062 -0.801646530339746 -0.04276788375369428 C -0.7926759153897112 -0.043565020229968 -0.7837561236066102 -0.040765362179802256 -0.7768499945441676 -0.034984986714794275 C -0.7699437057612628 -0.02920509316365716 -0.7656167376048055 -0.02091810122677701 -0.7648212219113637 -0.011947529951945812 C -0.7640257062179212 -0.002976958677114061 -0.7668268263796292 0.005942156448759506 -0.7726082072378109 0.01284720022762098 L -0.8423476737441551 0.09618280206348706 C -0.8481275672952928 0.10308909084639112 -0.856414559232173 0.10741605900284906 -0.8653851305070048 0.1082115746962915 C -0.874355701781836 0.10900709038973339 -0.8832748169077096 0.10620597022802608 -0.8901798606865705 0.10042458936984378 Z" fill="#525252" transform="matrix(1,0,0,1,0,0)" fill-rule="nonzero"></path></g><g clip-path="url(#SvgjsClipPath6014845d7904-acb1-44b9-a09e-fa44865dc077)"><path d=" M -0.6401989197357179 0.30963436736996064 C -0.6471077650305552 0.30385424933475513 -0.6514364257840943 0.2955655024986321 -0.6522319851183294 0.2865928221212527 C -0.653027544452564 0.2776201417438734 -0.6502247840123745 0.2686990901271924 -0.6444407070420746 0.2617935589086301 L -0.5747012405357301 0.17845795707276402 C -0.5689226517283135 0.17154966164727747 -0.5606353697599185 0.1672212020797783 -0.5516640994795503 0.1664256243981015 C -0.5426928291991815 0.16563004671642523 -0.5337731661134979 0.16843258397559646 -0.5268690535933149 0.17421616976640664 C -0.5199596770571386 0.1799951421792264 -0.5156292194771555 0.18828235061494947 -0.5148304805882331 0.19725441963241297 C -0.5140317416993114 0.20622648864987592 -0.5168301613683572 0.21514834573599073 -0.5226100232491282 0.22205697822773773 L -0.592366732793302 0.3053839585446886 C -0.6044051163702451 0.31975926095207197 -0.6258143750237237 0.32166170589009724 -0.6401989197357179 0.30963436736996064 Z" fill="#525252" transform="matrix(1,0,0,1,0,0)" fill-rule="nonzero"></path></g></g><g><path d=" M 0.73725 0.15974999999999973 Q 0.8625 0.2234999999999997 0.92925 0.34199999999999975 Q 0.996 0.4604999999999997 0.996 0.6209999999999998 Q 0.996 0.7814999999999998 0.92925 0.8992499999999998 Q 0.8625 1.0169999999999997 0.73725 1.0792499999999998 Q 0.612 1.1414999999999997 0.441 1.1414999999999997 L 0.1155 1.1414999999999997 L 0.1155 0.09599999999999964 L 0.441 0.09599999999999964 Q 0.612 0.09599999999999964 0.73725 0.15974999999999973 M 0.75 0.9217499999999997 Q 0.8565 0.8144999999999998 0.8565 0.6209999999999998 Q 0.8565 0.4259999999999997 0.74925 0.31649999999999967 Q 0.642 0.20699999999999974 0.441 0.20699999999999974 L 0.252 0.20699999999999974 L 0.252 1.0289999999999997 L 0.441 1.0289999999999997 Q 0.6435 1.0289999999999997 0.75 0.9217499999999997 M 1.323705322265625 1.1024999999999998 Q 1.229955322265625 1.0499999999999998 1.176705322265625 0.9532499999999997 Q 1.123455322265625 0.8564999999999997 1.123455322265625 0.7289999999999996 Q 1.123455322265625 0.6029999999999998 1.178205322265625 0.5062499999999998 Q 1.2329553222656249 0.40949999999999975 1.327455322265625 0.3577499999999997 Q 1.421955322265625 0.3059999999999997 1.538955322265625 0.3059999999999997 Q 1.655955322265625 0.3059999999999997 1.750455322265625 0.3577499999999997 Q 1.844955322265625 0.40949999999999975 1.8997053222656248 0.5054999999999997 Q 1.9544553222656251 0.6014999999999997 1.9544553222656251 0.7289999999999996 Q 1.9544553222656251 0.8564999999999997 1.898205322265625 0.9532499999999997 Q 1.8419553222656249 1.0499999999999998 1.745955322265625 1.1024999999999998 Q 1.649955322265625 1.1549999999999998 1.532955322265625 1.1549999999999998 Q 1.417455322265625 1.1549999999999998 1.323705322265625 1.1024999999999998 M 1.670955322265625 1.0004999999999997 Q 1.7354553222656248 0.9659999999999997 1.775205322265625 0.8969999999999998 Q 1.814955322265625 0.8279999999999997 1.814955322265625 0.7289999999999996 Q 1.814955322265625 0.6299999999999997 1.775955322265625 0.5609999999999997 Q 1.7369553222656249 0.49199999999999977 1.673955322265625 0.4582499999999997 Q 1.610955322265625 0.42449999999999977 1.5374553222656249 0.42449999999999977 Q 1.462455322265625 0.42449999999999977 1.400205322265625 0.4582499999999997 Q 1.3379553222656249 0.49199999999999977 1.300455322265625 0.5609999999999997 Q 1.262955322265625 0.6299999999999997 1.262955322265625 0.7289999999999996 Q 1.262955322265625 0.8294999999999997 1.299705322265625 0.8984999999999997 Q 1.336455322265625 0.9674999999999997 1.397955322265625 1.0012499999999998 Q 1.459455322265625 1.0349999999999997 1.532955322265625 1.0349999999999997 Q 1.6064553222656248 1.0349999999999997 1.670955322265625 1.0004999999999997 M 2.132977294921875 0.5062499999999998 Q 2.183977294921875 0.4109999999999997 2.274727294921875 0.3584999999999997 Q 2.3654772949218748 0.3059999999999997 2.4824772949218747 0.3059999999999997 Q 2.633977294921875 0.3059999999999997 2.732227294921875 0.3794999999999997 Q 2.830477294921875 0.45299999999999974 2.861977294921875 0.5834999999999997 L 2.7149772949218747 0.5834999999999997 Q 2.6939772949218748 0.5084999999999997 2.633227294921875 0.46499999999999975 Q 2.572477294921875 0.42149999999999976 2.4824772949218747 0.42149999999999976 Q 2.3654772949218748 0.42149999999999976 2.2934772949218747 0.5017499999999997 Q 2.221477294921875 0.5819999999999997 2.221477294921875 0.7289999999999996 Q 2.221477294921875 0.8774999999999997 2.2934772949218747 0.9584999999999997 Q 2.3654772949218748 1.0394999999999996 2.4824772949218747 1.0394999999999996 Q 2.572477294921875 1.0394999999999996 2.632477294921875 0.9974999999999997 Q 2.6924772949218747 0.9554999999999998 2.7149772949218747 0.8774999999999997 L 2.861977294921875 0.8774999999999997 Q 2.828977294921875 1.0034999999999998 2.729977294921875 1.0792499999999998 Q 2.630977294921875 1.1549999999999998 2.4824772949218747 1.1549999999999998 Q 2.3654772949218748 1.1549999999999998 2.274727294921875 1.1024999999999998 Q 2.183977294921875 1.0499999999999998 2.132977294921875 0.9539999999999997 Q 2.0819772949218747 0.8579999999999997 2.0819772949218747 0.7289999999999996 Q 2.0819772949218747 0.6014999999999997 2.132977294921875 0.5062499999999998 M 3.1784692382812496 1.0304999999999997 L 3.5444692382812497 1.0304999999999997 L 3.5444692382812497 1.1414999999999997 L 3.0419692382812498 1.1414999999999997 L 3.0419692382812498 0.09599999999999964 L 3.1784692382812496 0.09599999999999964 L 3.1784692382812496 1.0304999999999997 M 3.6929794921875 0.1589999999999997 Q 3.6659794921874997 0.13199999999999967 3.6659794921874997 0.09299999999999975 Q 3.6659794921874997 0.053999999999999604 3.6929794921875 0.02699999999999969 Q 3.7199794921874996 -2.220446049250313e-16 3.7589794921874997 -2.220446049250313e-16 Q 3.7964794921875 -2.220446049250313e-16 3.8227294921875 0.02699999999999969 Q 3.8489794921874996 0.053999999999999604 3.8489794921874996 0.09299999999999975 Q 3.8489794921874996 0.13199999999999967 3.8227294921875 0.1589999999999997 Q 3.7964794921875 0.18599999999999972 3.7589794921874997 0.18599999999999972 Q 3.7199794921874996 0.18599999999999972 3.6929794921875 0.1589999999999997 M 3.8249794921874996 0.3194999999999997 L 3.8249794921874996 1.1414999999999997 L 3.6884794921874997 1.1414999999999997 L 3.6884794921874997 0.3194999999999997 L 3.8249794921874996 0.3194999999999997 M 4.69943701171875 0.39524999999999977 Q 4.79243701171875 0.48599999999999977 4.79243701171875 0.6569999999999998 L 4.79243701171875 1.1414999999999997 L 4.657437011718749 1.1414999999999997 L 4.657437011718749 0.6764999999999997 Q 4.657437011718749 0.5534999999999998 4.59593701171875 0.48824999999999974 Q 4.53443701171875 0.4229999999999997 4.4279370117187495 0.4229999999999997 Q 4.31993701171875 0.4229999999999997 4.25618701171875 0.4904999999999997 Q 4.1924370117187495 0.5579999999999997 4.1924370117187495 0.6869999999999997 L 4.1924370117187495 1.1414999999999997 L 4.05593701171875 1.1414999999999997 L 4.05593701171875 0.3194999999999997 L 4.1924370117187495 0.3194999999999997 L 4.1924370117187495 0.4364999999999998 Q 4.23293701171875 0.3734999999999997 4.30268701171875 0.33899999999999975 Q 4.37243701171875 0.30449999999999977 4.45643701171875 0.30449999999999977 Q 4.60643701171875 0.30449999999999977 4.69943701171875 0.39524999999999977 M 5.473458984375 1.1414999999999997 L 5.150958984374999 0.7784999999999997 L 5.150958984374999 1.1414999999999997 L 5.014458984375 1.1414999999999997 L 5.014458984375 0.03149999999999964 L 5.150958984374999 0.03149999999999964 L 5.150958984374999 0.6839999999999997 L 5.467458984375 0.3194999999999997 L 5.657958984375 0.3194999999999997 L 5.2709589843749995 0.7289999999999996 L 5.659458984375 1.1414999999999997 L 5.473458984375 1.1414999999999997" fill="#525252" fill-rule="nonzero"></path></g><g></g></g><defs><clipPath id="SvgjsClipPath6019"><path d=" M -1.9449364847916666 -0.3347120918072716 h 1.6699364847916667 v 1.8109241836145429 h -1.6699364847916667 Z"></path></clipPath><clipPath id="SvgjsClipPath6014845d7904-acb1-44b9-a09e-fa44865dc077"><path d=" M -1.9449364847916666 -0.3347120918072716 L -0.2749999999999999 -0.3347120918072716 L -0.2749999999999999 1.4762120918072714 L -1.9449364847916666 1.4762120918072714 Z"></path></clipPath></defs></svg>